<?xml version="1.0" encoding="UTF-8" standalone="no"?>
<!-- Created with Inkscape (http://www.inkscape.org/) -->

<svg
   width="78.349442mm"
   height="59.344368mm"
   viewBox="0 0 78.349442 59.344368"
   version="1.1"
   id="svg1"
   xml:space="preserve"
   xmlns:inkscape="http://www.inkscape.org/namespaces/inkscape"
   xmlns:sodipodi="http://sodipodi.sourceforge.net/DTD/sodipodi-0.dtd"
   xmlns="http://www.w3.org/2000/svg"
   xmlns:svg="http://www.w3.org/2000/svg"><sodipodi:namedview
     id="namedview1"
     pagecolor="#ffffff"
     bordercolor="#000000"
     borderopacity="0.25"
     inkscape:showpageshadow="2"
     inkscape:pageopacity="0.0"
     inkscape:pagecheckerboard="0"
     inkscape:deskcolor="#d1d1d1"
     inkscape:document-units="mm" /><defs
     id="defs1" /><g
     inkscape:label="Capa 1"
     inkscape:groupmode="layer"
     id="layer1"
     transform="translate(136.67153,-23.182485)"><path
       id="path4"
       style="display:inline;fill:#ffffff;fill-opacity:1;stroke-width:0.606215"
       d="m -97.693353,23.184012 c -4.165107,0.158116 -11.577297,12.586073 -11.577297,12.586073 0,0 -11.98816,0.07964 -14.35736,0.461766 -2.36919,0.382128 -2.82691,0.457737 -7.48889,4.279027 -4.66197,3.821293 -5.27404,13.298901 -5.5033,17.196626 -0.22927,3.897726 0.1531,9.247871 4.43296,17.807575 4.27982,8.559685 10.47023,6.87794 10.47023,6.87794 0,0 45.626126,0.07653 47.842475,0 2.21635,-0.07643 5.273485,-0.382274 7.795551,-2.216473 2.522042,-1.834224 4.355984,-6.114661 6.725203,-14.29224 2.369196,-8.177556 0.344895,-14.023676 -2.903203,-22.086603 -3.248103,-8.062927 -11.999988,-7.79555 -11.999988,-7.79555 l -15.504669,-0.286532 c 0,0 -0.05393,-0.05373 0.918795,-2.377501 0.97273,-2.323784 -1.081005,-4.593977 -1.081005,-4.593977 0,0 -2.863751,-2.270136 -6.592591,-5.188351 -0.349578,-0.273584 -0.746038,-0.388135 -1.176911,-0.37178 z m 1.462258,6.784403 2.756385,2.377499 c 0,0 -9.61945,8.862763 -2.431966,8.916813 7.187482,0.05407 14.752821,0.271139 14.752821,0.271139 0,0 -4.700954,8.59182 -4.755003,11.996436 -0.05407,3.404588 -0.378883,3.67518 -0.378883,3.67518 0,0 -19.346289,-0.972387 -20.643289,1.405424 -1.29698,2.377811 -0.75632,3.782241 1.24321,3.998416 1.99953,0.216061 19.832244,0.486632 19.832244,0.486632 0,0 1.675833,10.213407 3.243014,11.888688 1.567207,1.675283 1.567635,1.729846 1.567635,1.729846 0,0 -41.396193,0.757003 -43.449773,-1.458707 -2.05356,-2.215685 -2.21529,-2.162011 -2.21529,-2.162011 0,0 20.69706,1.188385 20.15666,-2.48643 -0.54043,-3.674793 -9.72724,-2.539463 -15.99604,-2.809665 -6.26878,-0.270202 -6.43038,-0.162217 -6.43038,-0.162217 0,0 -2.43264,-7.944112 -1.45989,-11.943154 0.97273,-3.999067 1.02773,-3.945137 1.02773,-3.945137 l 22.2642,-0.05446 c 0,0 8.052035,-5.620078 -2.43196,-5.566051 -10.484,0.05407 -17.50921,-0.05327 -17.50921,-0.05327 0,0 -0.48609,-4.378131 10.16003,-4.48623 10.64612,-0.108145 9.72799,0.972681 15.18617,-5.296097 5.458147,-6.2688 5.511585,-6.322636 5.511585,-6.322636 z m 24.555274,10.360124 c 2.082898,0.06612 5.424563,3.699572 8.003938,9.890074 3.057037,7.336892 -5.82e-4,17.806953 -1.605522,22.621779 -1.604943,4.814826 -7.871564,5.044543 -9.935067,2.598912 -2.063503,-2.44563 -4.050892,-7.87225 -5.120863,-16.966927 -1.069943,-9.094678 6.114253,-16.58449 6.114253,-16.58449 0,0 -0.30564,0.305444 1.528561,-1.223088 0.286598,-0.238835 0.62898,-0.348403 1.0147,-0.33626 z m 0.561225,11.126185 c 0,0 -1.719556,3.591239 -0.840651,8.597127 0.878905,5.005893 1.032459,5.082976 1.032459,5.082976 0,0 2.407159,-3.859485 1.146126,-8.78894 -1.261041,-4.929469 -1.337934,-4.891163 -1.337934,-4.891163 z"
       inkscape:export-filename="path4.svg"
       inkscape:export-xdpi="96"
       inkscape:export-ydpi="96" /></g></svg>
